<?xml version="1.0" encoding="utf-8" ?>
<svg
  width="117px"
  height="117px"
  viewBox="0 0 117 117"
  version="1.1"
  xmlns:xlink="http://www.w3.org/1999/xlink"
  xmlns="http://www.w3.org/2000/svg"
>
  <desc>Created with Lunacy</desc>
  <defs>
    <path d="M0 0L116.625 0L116.625 116.398L0 116.398L0 0Z" id="path_1" />
    <clipPath id="mask_1">
      <use xlink:href="#path_1" />
    </clipPath>
  </defs>
  <g id="fork">
    <path
      d="M0 0L116.625 0L116.625 116.398L0 116.398L0 0Z"
      id="Background"
      fill="none"
      stroke="none"
    />
    <g clip-path="url(#mask_1)">
      <path
        d="M80.7503 44.5569L73.8981 44.9911C71.2278 45.1602 68.7275 46.4486 67.0396 48.5254L16.1378 111.641C14.7444 113.344 12.6863 114.38 10.3364 114.568C10.0864 114.588 9.83543 114.598 9.58451 114.598C7.24082 114.598 4.89624 113.737 3.19053 112.225C1.30241 110.551 0.112767 108.005 0.00777257 105.412C-0.0874343 103.057 0.694685 100.89 2.2091 99.3107L58.7798 41.1953C60.635 39.2752 61.6146 36.6388 61.4625 33.9667L61.0718 27.1127C61.0709 27.1003 61.0709 27.0878 61.0701 27.0762C60.8939 22.178 62.9083 17.52 66.5983 14.2945L73.8393 7.9637C80.1426 2.45327 88.2174 -0.362894 96.5831 0.0375088C98.2256 0.11581 99.8077 0.760013 101.038 1.85089C102.268 2.94087 103.097 4.43482 103.372 6.056C104.772 14.3105 102.945 22.6674 98.2301 29.5863L92.8131 37.5339C90.053 41.5842 85.6699 44.1423 80.7868 44.5543C80.7743 44.5552 80.7619 44.556 80.7503 44.5569ZM13.4248 109.436L64.3222 46.3258C66.6276 43.4892 70.0355 41.7328 73.6765 41.5014L80.5101 41.069C84.3326 40.7407 87.7627 38.736 89.924 35.5648L95.341 27.6163C99.5443 21.4484 101.173 13.9991 99.9251 6.6397C99.7828 5.80241 99.3548 5.03008 98.7186 4.46685C98.0824 3.90273 97.2656 3.56995 96.4167 3.52902C88.9621 3.17488 81.7602 5.68318 76.1403 10.5957L68.8993 16.9265C66.0101 19.4526 64.4308 23.098 64.5634 26.9321L64.954 33.7683C65.1604 37.4111 63.8257 41.0049 61.2898 43.6289L4.72363 101.74C3.8819 102.617 3.44501 103.874 3.50196 105.27C3.56869 106.932 4.31967 108.553 5.5102 109.609C6.70073 110.664 8.40022 111.216 10.0579 111.083C11.4513 110.972 12.6472 110.387 13.4248 109.436Z"
        transform="translate(12.794418 1.7135811)"
        id="Shape"
        fill="#366D87"
        fill-rule="evenodd"
        stroke="none"
      />
      <path
        d="M47.409 35.0036L9.47843 0.456028C8.76482 -0.194404 7.65971 -0.142796 7.00839 0.57081C6.35885 1.28442 6.41046 2.39042 7.12406 3.04085L45.0449 37.5805C45.9471 38.4142 46.4587 39.643 46.4863 41.0399C46.5192 42.7021 45.867 44.3651 44.7414 45.4906C43.6167 46.6153 41.9564 47.2693 40.2907 47.2355C38.8938 47.2079 37.665 46.6963 36.8402 45.8038L3.04085 8.69631C2.39042 7.98182 1.28442 7.9311 0.57081 8.58064C-0.142796 9.23107 -0.194404 10.3371 0.456028 11.0507L34.2633 48.1671C35.7493 49.7741 37.8652 50.6852 40.2222 50.7315C40.2836 50.7323 40.3441 50.7332 40.4055 50.7332C42.9387 50.7332 45.472 49.7055 47.2133 47.9633C48.9982 46.1784 50.033 43.5651 49.9814 40.9714C49.9351 38.6144 49.0249 36.4985 47.409 35.0036L47.409 35.0036Z"
        transform="translate(65.986786 65.57926)"
        id="Shape"
        fill="#4EC6FF"
        stroke="none"
      />
      <path
        d="M21.0949 46.0323C23.9884 48.6981 27.7478 50.2178 31.6806 50.3121C31.6931 50.313 31.7055 50.313 31.7171 50.313L38.5827 50.3344C41.2591 50.3424 43.8315 51.4786 45.6369 53.4459L48.6612 56.7657C49.0065 57.1448 49.4789 57.337 49.9541 57.337C50.3741 57.337 50.7958 57.1866 51.1304 56.8814C51.8449 56.231 51.8965 55.125 51.2461 54.4114L48.2172 51.0871C45.7508 48.3982 42.2432 46.85 38.5942 46.8375L31.7473 46.8162C28.7052 46.7388 25.7965 45.574 23.5426 43.5338L3.6462 19.8815C3.44333 19.6395 3.45845 19.2889 3.68179 19.0656C3.83483 18.9117 4.01457 18.8894 4.10799 18.8894C4.20142 18.8894 4.38116 18.9117 4.53509 19.0656L22.6457 37.1771C24.436 38.9674 27.3491 38.9674 29.1394 37.1763L31.2677 35.0488L31.2677 35.0479L35.0467 31.269C35.0467 31.269 35.0475 31.269 35.0475 31.2681C35.0475 31.2681 35.0484 31.2672 35.0484 31.2672L37.1759 29.1397C38.9662 27.3495 38.9662 24.4363 37.1759 22.6461L19.0653 4.53544C18.8304 4.30054 18.8304 3.91704 19.0653 3.68214C19.2886 3.45881 19.6392 3.44368 19.8812 3.64655L43.5334 23.5439C45.5746 25.7968 46.7393 28.7064 46.8167 31.7477L46.8372 38.5955C46.8496 42.2436 48.3987 45.7511 51.0912 48.2229L54.3318 51.1743C55.0463 51.8248 56.1514 51.7732 56.8019 51.0596C57.4514 50.3451 57.3998 49.2399 56.6862 48.5895L53.4509 45.6425C51.4783 43.8327 50.3429 41.2595 50.334 38.5839L50.3127 31.7183C50.3127 31.7059 50.3127 31.6934 50.3118 31.681C50.2175 27.7481 48.6977 23.9888 46.0319 21.0952C45.9821 21.0409 45.9287 20.9893 45.8718 20.9413L22.1314 0.970971C20.4907 -0.409973 18.1096 -0.306758 16.5934 1.20943C14.9945 2.80837 14.9945 5.40921 16.5934 7.00726L34.7041 25.1188C35.1312 25.5459 35.1312 26.2408 34.7041 26.6679L33.8116 27.5595L13.6269 7.37563C12.9444 6.69228 11.8375 6.69228 11.1551 7.37563C10.4726 8.0581 10.4726 9.16499 11.1551 9.84745L31.3398 30.0322L30.0318 31.3393L9.8471 11.1554C9.16463 10.473 8.05774 10.473 7.37528 11.1554C6.69193 11.8379 6.69193 12.9448 7.37528 13.6273L27.5591 33.812L26.6676 34.7044C26.2405 35.1315 25.5455 35.1315 25.1185 34.7044L7.00691 16.5938C6.2328 15.8197 5.20332 15.3926 4.10799 15.3926C3.01267 15.3926 1.98319 15.8197 1.20908 16.5938C-0.307111 18.11 -0.409436 20.491 0.970619 22.1327L20.9418 45.8721C20.989 45.9291 21.0406 45.9824 21.0949 46.0323L21.0949 46.0323Z"
        transform="translate(0.00010681152 0.34145355)"
        id="Shape"
        fill="#4EC6FF"
        stroke="none"
      />
    </g>
  </g>
</svg>
