<?xml version="1.0" encoding="utf-8"?>
<svg width="1920px" height="1235px" viewBox="0 0 1920 1235" version="1.1" xmlns:xlink="http://www.w3.org/1999/xlink" xmlns="http://www.w3.org/2000/svg">
  <desc>Created with Lunacy</desc>
  <path d="M219.711 620.435C334.576 609 296.526 511.26 252.055 439.815C224.621 395.742 200.21 320.335 225.265 274.867C252.925 224.671 305.528 184.948 402.709 256.429C579.334 386.345 582.591 -119.702 766.709 26.9291C950.828 173.56 930.837 30.3042 1126.71 16.9292C1249.24 8.56221 1445.44 38.0561 1575.19 61.3166C1648.04 74.3755 1766.25 100.286 1831.19 135.772C1903.25 175.146 1962.06 236.921 1863.21 315.929C1770.6 389.953 2175.84 279.489 2120.21 347.929C2005.85 488.624 2259.08 454.7 2276.71 473.929C2313.38 513.929 2433.36 803.793 2433.36 880.461C2433.36 957.128 2660.03 877.128 2423.36 1057.13C2186.69 1237.13 2540.04 1103.93 2446.71 1103.93C2353.38 1103.93 2326.55 1156.93 2163.21 1146.93C1999.87 1136.93 1526.38 1233.76 1319.71 1120.43C1113.04 1007.1 710.543 1146.6 627.209 1139.93C543.875 1133.26 450.21 1297.1 260.209 1140.43C70.2086 983.762 16.6668 1233.8 16.6668 1233.8C16.6668 1233.8 0 890.46 0 890.46C0 890.46 36.3238 638.691 219.711 620.435Z" transform="translate(-156.21 0.5)" id="New-shape-2" fill="#4EC6FF" stroke="#808080" stroke-width="1" />
</svg>